<svg width="13" height="12" viewBox="0 0 13 12" fill="none" xmlns="http://www.w3.org/2000/svg">
<path d="M7.05916 9.60045C7.147 9.68834 7.19635 9.80753 7.19635 9.93179C7.19635 10.0561 7.147 10.1752 7.05916 10.2631L6.47674 10.8491C5.86081 11.4646 5.02559 11.8103 4.1548 11.81C3.28402 11.8097 2.44902 11.4635 1.83348 10.8476C1.21794 10.2317 0.872284 9.39646 0.872559 8.52568C0.872833 7.6549 1.21901 6.81989 1.83494 6.20435L3.24822 4.79107C3.83984 4.19898 4.63535 3.85537 5.47199 3.83053C6.30862 3.8057 7.12312 4.10153 7.74881 4.65748C7.79498 4.69841 7.83263 4.74804 7.85962 4.80353C7.88661 4.85901 7.9024 4.91927 7.9061 4.98087C7.9098 5.04246 7.90133 5.10417 7.88118 5.16249C7.86103 5.22081 7.82959 5.27459 7.78865 5.32076C7.74772 5.36693 7.69809 5.40458 7.6426 5.43157C7.58712 5.45856 7.52685 5.47435 7.46526 5.47805C7.40367 5.48175 7.34196 5.47328 7.28364 5.45313C7.22532 5.43298 7.17154 5.40154 7.12537 5.3606C6.67849 4.96375 6.09688 4.75261 5.49948 4.77036C4.90208 4.78812 4.33403 5.03342 3.9115 5.45611L2.49822 6.86763C2.0586 7.30726 1.81162 7.90352 1.81162 8.52525C1.81162 9.14698 2.0586 9.74324 2.49822 10.1829C2.93785 10.6225 3.53411 10.8695 4.15584 10.8695C4.77757 10.8695 5.37383 10.6225 5.81346 10.1829L6.39588 9.60045C6.43941 9.55686 6.49111 9.52229 6.54802 9.4987C6.60492 9.47511 6.66592 9.46297 6.72752 9.46297C6.78912 9.46297 6.85012 9.47511 6.90702 9.4987C6.96393 9.52229 7.01563 9.55686 7.05916 9.60045ZM11.1654 1.51451C10.5494 0.899871 9.71472 0.554688 8.84451 0.554688C7.97431 0.554688 7.13963 0.899871 6.52361 1.51451L5.94119 2.09752C5.85331 2.18547 5.80397 2.30474 5.80403 2.42907C5.80408 2.55341 5.85353 2.67263 5.94149 2.7605C6.02944 2.84838 6.14871 2.89772 6.27304 2.89767C6.39737 2.89761 6.51659 2.84817 6.60447 2.76021L7.1869 2.17779C7.62652 1.73816 8.22278 1.49118 8.84451 1.49118C9.46624 1.49118 10.0625 1.73816 10.5021 2.17779C10.9418 2.61742 11.1887 3.21368 11.1887 3.83541C11.1887 4.45713 10.9418 5.0534 10.5021 5.49302L9.08885 6.90748C8.66609 7.32992 8.09792 7.5749 7.50052 7.59233C6.90313 7.60976 6.32165 7.39831 5.87498 7.00123C5.78174 6.91855 5.65948 6.87631 5.53509 6.88378C5.4107 6.89125 5.29437 6.94783 5.2117 7.04107C5.12903 7.13431 5.08678 7.25657 5.09425 7.38096C5.10172 7.50535 5.1583 7.62168 5.25154 7.70435C5.87709 8.26046 6.6915 8.55649 7.52813 8.53187C8.36476 8.50726 9.16036 8.16385 9.75213 7.57193L11.1654 6.15865C11.7804 5.54258 12.1258 4.70766 12.1258 3.83717C12.1258 2.96667 11.7804 2.13175 11.1654 1.51568V1.51451Z" fill="#808080"/>
</svg>
